
<svg xmlns="http://www.w3.org/2000/svg" viewBox="0 0 55 55">
    <style type="text/css">
        .st0{fill-rule:evenodd;clip-rule:evenodd;fill:url(#SVGID_1_);}
        .st1{fill:#D7D7D7;}
        .st2{opacity:0.8;fill-rule:evenodd;clip-rule:evenodd;fill:url(#Rectangle-100_8_);enable-background:new    ;}
        .st3{opacity:0.8;fill-rule:evenodd;clip-rule:evenodd;fill:url(#Rectangle-100_9_);enable-background:new    ;}
        .st4{opacity:0.8;fill-rule:evenodd;clip-rule:evenodd;fill:url(#Combined-Shape_17_);enable-background:new    ;}
        .st5{opacity:0.8;fill-rule:evenodd;clip-rule:evenodd;fill:url(#Rectangle-100_10_);enable-background:new    ;}
        .st6{opacity:0.8;fill-rule:evenodd;clip-rule:evenodd;fill:url(#Combined-Shape_18_);enable-background:new    ;}
        .st7{opacity:0.8;fill-rule:evenodd;clip-rule:evenodd;fill:#0D5309;enable-background:new    ;}
        .st8{opacity:0.8;fill-rule:evenodd;clip-rule:evenodd;fill:url(#Rectangle-100_11_);enable-background:new    ;}
        .st9{opacity:0.8;fill-rule:evenodd;clip-rule:evenodd;fill:url(#Combined-Shape_19_);enable-background:new    ;}
        .st10{opacity:0.8;fill-rule:evenodd;clip-rule:evenodd;fill:#0F4525;enable-background:new    ;}
        .st11{opacity:0.8;fill-rule:evenodd;clip-rule:evenodd;fill:url(#Rectangle-100_12_);enable-background:new    ;}
        .st12{opacity:0.8;fill-rule:evenodd;clip-rule:evenodd;fill:url(#Combined-Shape_20_);enable-background:new    ;}
        .st13{opacity:0.8;fill-rule:evenodd;clip-rule:evenodd;fill:#242161;enable-background:new    ;}
        .st14{opacity:0.8;fill-rule:evenodd;clip-rule:evenodd;fill:url(#Rectangle-100_13_);enable-background:new    ;}
        .st15{opacity:0.8;fill-rule:evenodd;clip-rule:evenodd;fill:url(#Combined-Shape_21_);enable-background:new    ;}
        .st16{opacity:0.8;fill-rule:evenodd;clip-rule:evenodd;fill:#501232;enable-background:new    ;}
        .st17{opacity:0.8;fill-rule:evenodd;clip-rule:evenodd;fill:url(#Rectangle-100_14_);enable-background:new    ;}
        .st18{opacity:0.8;fill-rule:evenodd;clip-rule:evenodd;fill:url(#Combined-Shape_22_);enable-background:new    ;}
        .st19{opacity:0.8;fill-rule:evenodd;clip-rule:evenodd;fill:#7F0D07;enable-background:new    ;}
        .st20{opacity:0.8;fill-rule:evenodd;clip-rule:evenodd;fill:url(#Rectangle-100_15_);enable-background:new    ;}
        .st21{opacity:0.8;fill-rule:evenodd;clip-rule:evenodd;fill:url(#Combined-Shape_23_);enable-background:new    ;}
        .st22{opacity:0.8;fill-rule:evenodd;clip-rule:evenodd;fill:#598000;enable-background:new    ;}
        .st23{fill-rule:evenodd;clip-rule:evenodd;fill:url(#Combined-Shape_24_);}
        .st24{opacity:0.8;fill-rule:evenodd;clip-rule:evenodd;fill:#A54F00;enable-background:new    ;}
        .st25{opacity:0.8;fill-rule:evenodd;clip-rule:evenodd;fill:#AA1500;enable-background:new    ;}
    </style>
    <linearGradient id="SVGID_1_" gradientUnits="userSpaceOnUse" x1="27.5" y1="2.5652" x2="27.5" y2="52.4348">
        <stop  offset="0" style="stop-color:#F5F5F5"/>
        <stop  offset="1" style="stop-color:#CCCCCC"/>
    </linearGradient>
    <circle class="st0" cx="27.5" cy="27.5" r="24.9"/>
    <path class="st1" d="M27.5,53c-6.8,0-13.2-2.7-18-7.5S2,34.3,2,27.5c0-6.8,2.7-13.2,7.5-18S20.7,2,27.5,2c6.8,0,13.2,2.7,18,7.5
        s7.5,11.2,7.5,18c0,6.8-2.7,13.2-7.5,18S34.3,53,27.5,53z M27.5,3.1c-6.5,0-12.6,2.5-17.2,7.1S3.1,21,3.1,27.5s2.5,12.6,7.1,17.2
        c4.6,4.6,10.7,7.1,17.2,7.1s12.6-2.5,17.2-7.1s7.1-10.7,7.1-17.2s-2.5-12.6-7.1-17.2C40.1,5.7,34,3.1,27.5,3.1z"/>
    <linearGradient id="Rectangle-100_8_" gradientUnits="userSpaceOnUse" x1="10.7802" y1="42.0192" x2="10.7802" y2="41.9095" gradientTransform="matrix(86.4529 86.4529 124.5416 -124.5416 -6122.6191 4313.5654)">
        <stop  offset="0" style="stop-color:#FBE41F"/>
        <stop  offset="1" style="stop-color:#C4DA30"/>
    </linearGradient>
    <path id="Rectangle-100" class="st2" d="M42.5,12.4L42.5,12.4c2.6,2.6,2.6,6.9,0,9.5l-4.2,4.2c-2.6,2.6-6.9,2.6-9.5,0l0,0
        c-2.6-2.6-2.6-6.9,0-9.5l4.2-4.2C35.6,9.8,39.9,9.8,42.5,12.4z"/>
    <linearGradient id="Rectangle-100_9_" gradientUnits="userSpaceOnUse" x1="11.6139" y1="44.4228" x2="11.6139" y2="44.313" gradientTransform="matrix(2.245932e-14 122.2628 -176.1285 3.235428e-14 7853.4741 -1393.0575)">
        <stop  offset="0" style="stop-color:#73CC81"/>
        <stop  offset="1" style="stop-color:#C7DB44"/>
    </linearGradient>
    <path id="Rectangle-100_1_" class="st3" d="M29.4,26.9L29.4,26.9c0,3.7,3,6.7,6.7,6.7H42c3.7,0,6.7-3,6.7-6.7l0,0
        c0-3.7-3-6.7-6.7-6.7h-5.9C32.4,20.2,29.4,23.2,29.4,26.9z"/>
    <linearGradient id="Combined-Shape_17_" gradientUnits="userSpaceOnUse" x1="11.1662" y1="45.4487" x2="11.0691" y2="45.3771" gradientTransform="matrix(130.0282 0 0 -71.463 -1410.3317 3269.2676)">
        <stop  offset="0" style="stop-color:#A4BC0F"/>
        <stop  offset="1" style="stop-color:#5BAA22"/>
    </linearGradient>
    <path id="Combined-Shape_1_" class="st4" d="M43.6,20.4c-0.3,0.5-0.7,1-1.1,1.5l-4.2,4.2c-2.4,2.4-6.3,2.6-9,0.5
        c0.2-3.5,3.1-6.4,6.7-6.4H42C42.6,20.2,43.1,20.3,43.6,20.4L43.6,20.4z"/>
    <linearGradient id="Rectangle-100_10_" gradientUnits="userSpaceOnUse" x1="13.4527" y1="40.1628" x2="13.4527" y2="40.0531" gradientTransform="matrix(86.4529 -86.4529 124.5416 124.5416 -6122.4395 -3797.3882)">
        <stop  offset="0" style="stop-color:#6AC284"/>
        <stop  offset="1" style="stop-color:#6ABBE7"/>
    </linearGradient>
    <path id="Rectangle-100_2_" class="st5" d="M42.5,41.5L42.5,41.5c2.6-2.6,2.6-6.9,0-9.5l-4.2-4.2c-2.6-2.6-6.9-2.6-9.5,0l0,0
        c-2.6,2.6-2.6,6.9,0,9.5l4.2,4.2C35.7,44.1,39.9,44.1,42.5,41.5z"/>
    <linearGradient id="Combined-Shape_18_" gradientUnits="userSpaceOnUse" x1="11.1767" y1="46.0605" x2="11.067" y2="46.139" gradientTransform="matrix(129.5077 0 0 -70.2676 -1403.486 3269.8621)">
        <stop  offset="0" style="stop-color:#4BA03A"/>
        <stop  offset="1" style="stop-color:#2E8F6D"/>
    </linearGradient>
    <path id="Combined-Shape_2_" class="st6" d="M29.4,27.4c0.3,3.5,3.1,6.2,6.7,6.2H42c0.6,0,1.1-0.1,1.6-0.2c-0.3-0.5-0.6-1-1.1-1.4
        l-4.2-4.2C35.9,25.4,32,25.3,29.4,27.4L29.4,27.4z"/>
    <path id="Combined-Shape_3_" class="st7" d="M37.2,27c-2.2,1.4-5.1,1.4-7.3,0C32.2,25.5,35,25.5,37.2,27L37.2,27z"/>
    <linearGradient id="Rectangle-100_11_" gradientUnits="userSpaceOnUse" x1="11.5557" y1="44.3699" x2="11.5557" y2="44.2602" gradientTransform="matrix(122.2628 0 0 -176.1285 -1385.0555 7843.0186)">
        <stop  offset="0" style="stop-color:#928EC4"/>
        <stop  offset="1" style="stop-color:#68B6E3"/>
    </linearGradient>
    <path id="Rectangle-100_3_" class="st8" d="M27.8,28.2L27.8,28.2c3.7,0,6.7,3,6.7,6.7v5.9c0,3.7-3,6.7-6.7,6.7h0
        c-3.7,0-6.7-3-6.7-6.7v-5.9C21.1,31.2,24.1,28.2,27.8,28.2z"/>
    <linearGradient id="Combined-Shape_19_" gradientUnits="userSpaceOnUse" x1="9.6891" y1="44.8586" x2="9.7699" y2="44.7489" gradientTransform="matrix(69.1192 0 0 -129.8137 -641.045 5851.8359)">
        <stop  offset="0" style="stop-color:#3E6AAD"/>
        <stop  offset="1" style="stop-color:#34808E"/>
    </linearGradient>
    <path id="Combined-Shape_4_" class="st9" d="M34.3,42.5c-0.4-0.3-0.9-0.6-1.2-1l-4.2-4.2c-2.5-2.5-2.6-6.5-0.4-9.1
        c3.4,0.4,6,3.2,6,6.7v5.9C34.5,41.4,34.4,42,34.3,42.5L34.3,42.5z"/>
    <path id="Combined-Shape_5_" class="st10" d="M29.5,28.4c0.6,2.4,2.4,4.3,4.8,4.9C33.7,31,31.9,29.1,29.5,28.4L29.5,28.4z"/>
    <linearGradient id="Rectangle-100_12_" gradientUnits="userSpaceOnUse" x1="16.2052" y1="42.0727" x2="16.2052" y2="41.963" gradientTransform="matrix(-86.4529 -86.4529 -124.5416 124.5416 6653.8594 -3797.2812)">
        <stop  offset="0" style="stop-color:#958DC2"/>
        <stop  offset="1" style="stop-color:#CD8CBD"/>
    </linearGradient>
    <path id="Rectangle-100_4_" class="st11" d="M13.1,41.5L13.1,41.5c-2.6-2.6-2.6-6.9,0-9.5l4.2-4.2c2.6-2.6,6.9-2.6,9.5,0l0,0
        c2.6,2.6,2.6,6.9,0,9.5l-4.2,4.2C19.9,44.2,15.7,44.2,13.1,41.5z"/>
    <linearGradient id="Combined-Shape_20_" gradientUnits="userSpaceOnUse" x1="10.451" y1="44.8543" x2="10.3666" y2="44.7446" gradientTransform="matrix(69.5537 0 0 -130.1705 -699.8362 5867.146)">
        <stop  offset="0" style="stop-color:#735095"/>
        <stop  offset="1" style="stop-color:#5260A6"/>
    </linearGradient>
    <path id="Combined-Shape_6_" class="st12" d="M27.1,28.2c-3.4,0.3-6,3.2-6,6.7v5.9c0,0.6,0.1,1.2,0.2,1.7c0.5-0.3,0.9-0.6,1.3-1
        l4.2-4.2C29.2,34.9,29.3,30.9,27.1,28.2L27.1,28.2z"/>
    <path id="Combined-Shape_7_" class="st13" d="M27.8,36c-1.2-2.1-1.2-4.6,0-6.7C29,31.3,29,33.9,27.8,36L27.8,36z"/>
    <linearGradient id="Rectangle-100_13_" gradientUnits="userSpaceOnUse" x1="11.6109" y1="41.7198" x2="11.6109" y2="41.6101" gradientTransform="matrix(-2.245932e-14 122.2628 176.1285 3.235428e-14 -7321.7852 -1392.6376)">
        <stop  offset="0" style="stop-color:#F56270"/>
        <stop  offset="1" style="stop-color:#CE8BBC"/>
    </linearGradient>
    <path id="Rectangle-100_5_" class="st14" d="M26.3,26.9L26.3,26.9c0,3.7-3,6.7-6.7,6.7h-5.9c-3.7,0-6.7-3-6.7-6.7l0,0
        c0-3.7,3-6.7,6.7-6.7h5.9C23.3,20.2,26.3,23.2,26.3,26.9z"/>
    <linearGradient id="Combined-Shape_21_" gradientUnits="userSpaceOnUse" x1="12.2558" y1="46.1307" x2="12.1692" y2="46.0447" gradientTransform="matrix(129.907 0 0 -70.5806 -1567.1169 3283.4263)">
        <stop  offset="0" style="stop-color:#BF3653"/>
        <stop  offset="1" style="stop-color:#8D487C"/>
    </linearGradient>
    <path id="Combined-Shape_8_" class="st15" d="M12,33.4c0.3-0.5,0.6-1,1.1-1.4l4.2-4.2c2.5-2.5,6.4-2.6,9-0.4
        c-0.2,3.5-3.1,6.2-6.7,6.2h-5.9C13.1,33.6,12.5,33.6,12,33.4L12,33.4z"/>
    <path id="Combined-Shape_9_" class="st16" d="M26.1,28.4c-2.4,0.6-4.3,2.6-4.9,5C23.7,32.8,25.5,30.9,26.1,28.4L26.1,28.4z"/>
    <linearGradient id="Rectangle-100_14_" gradientUnits="userSpaceOnUse" x1="13.5292" y1="43.9271" x2="13.5292" y2="43.8174" gradientTransform="matrix(-86.4529 86.4529 -124.5416 -124.5416 6653.4136 4313.5171)">
        <stop  offset="0" style="stop-color:#F15F6B"/>
        <stop  offset="1" style="stop-color:#F79948"/>
    </linearGradient>
    <path id="Rectangle-100_6_" class="st17" d="M13,12.4L13,12.4c-2.6,2.6-2.6,6.9,0,9.5l4.2,4.2c2.6,2.6,6.9,2.6,9.5,0l0,0
        c2.6-2.6,2.6-6.9,0-9.5l-4.2-4.2C19.9,9.8,15.6,9.8,13,12.4z"/>
    <linearGradient id="Combined-Shape_22_" gradientUnits="userSpaceOnUse" x1="12.2744" y1="45.3955" x2="12.1647" y2="45.488" gradientTransform="matrix(130.508 0 0 -70.9946 -1575.5291 3249.5493)">
        <stop  offset="0" style="stop-color:#DF1F07"/>
        <stop  offset="1" style="stop-color:#C51B1A"/>
    </linearGradient>
    <path id="Combined-Shape_10_" class="st18" d="M26.2,26.5c-0.2-3.5-3.1-6.2-6.7-6.2h-5.9c-0.6,0-1.2,0.1-1.7,0.2
        c0.3,0.5,0.7,1,1.1,1.4l4.2,4.2C19.7,28.5,23.6,28.7,26.2,26.5L26.2,26.5z"/>
    <path id="Combined-Shape_11_" class="st19" d="M18.3,27c2.2-1.4,5-1.4,7.2,0C23.4,28.4,20.5,28.4,18.3,27L18.3,27z"/>
    <linearGradient id="Rectangle-100_15_" gradientUnits="userSpaceOnUse" x1="11.5525" y1="43.3621" x2="11.5525" y2="43.2524" gradientTransform="matrix(122.2628 0 0 -176.1285 -1384.6237 7643.6353)">
        <stop  offset="0" style="stop-color:#FF8600"/>
        <stop  offset="1" style="stop-color:#FFE308"/>
    </linearGradient>
    <path id="Rectangle-100_7_" class="st20" d="M27.8,6.3L27.8,6.3c3.7,0,6.7,3,6.7,6.7V19c0,3.7-3,6.7-6.7,6.7h0c-3.7,0-6.7-3-6.7-6.7
        V13C21.1,9.3,24.1,6.3,27.8,6.3z"/>
    <linearGradient id="Combined-Shape_23_" gradientUnits="userSpaceOnUse" x1="9.8072" y1="43.8047" x2="9.7114" y2="43.695" gradientTransform="matrix(69.7308 0 0 -129.8435 -649.1747 5699.4038)">
        <stop  offset="0" style="stop-color:#EB9C09"/>
        <stop  offset="1" style="stop-color:#CDBF05"/>
    </linearGradient>
    <path id="Combined-Shape_12_" class="st21" d="M34.3,11.4c-0.5,0.3-0.9,0.6-1.3,1l-4.2,4.2c-2.5,2.5-2.6,6.4-0.4,9.1
        c3.4-0.3,6.1-3.2,6.1-6.7V13C34.5,12.5,34.5,11.9,34.3,11.4L34.3,11.4z"/>
    <path id="Combined-Shape_13_" class="st22" d="M29.5,25.4c0.5-2.5,2.4-4.4,4.9-5C33.8,22.9,31.9,24.8,29.5,25.4L29.5,25.4z"/>
    <linearGradient id="Combined-Shape_24_" gradientUnits="userSpaceOnUse" x1="10.327" y1="43.8154" x2="10.4123" y2="43.7057" gradientTransform="matrix(68.6755 0 0 -129.2222 -687.988 5673.2075)">
        <stop  offset="0" style="stop-color:#ED4103"/>
        <stop  offset="1" style="stop-color:#F77402"/>
    </linearGradient>
    <path id="Combined-Shape_14_" class="st23" d="M21.3,11.4c0.4,0.3,0.8,0.6,1.2,1l4.2,4.2c2.5,2.5,2.6,6.4,0.4,9
        c-3.4-0.4-6-3.2-6-6.7V13C21.1,12.5,21.2,12,21.3,11.4L21.3,11.4z"/>
    <path id="Combined-Shape_15_" class="st24" d="M27.8,18c-1.2,2.1-1.2,4.6,0,6.7C28.9,22.6,28.9,20,27.8,18L27.8,18z"/>
    <path id="Combined-Shape_16_" class="st25" d="M26.1,25.4c-0.6-2.4-2.4-4.3-4.8-5C21.8,22.9,23.7,24.8,26.1,25.4L26.1,25.4z"/>
</svg>
