<svg xmlns="http://www.w3.org/2000/svg" width="0" height="0">

	<svg id="icon-sidebar" viewBox="0 0 13 13">
		<style type="text/css">
			.st0{fill:#333;}
		</style>
		<path class="st0" d="M11,2H6H5H2H1v1v7v1h1h3h1h5h1v-1V3V2H11z M2,10V3h3v7H2z M11,10H6V3h5V10z"/>
		<rect x="3" y="4" class="st0" width="1" height="1"/>
		<rect x="3" y="6" class="st0" width="1" height="1"/>
	</svg>

	<svg id="icon-search-minus" viewBox="0 0 13 13">
		<style type="text/css">
			.st0{fill:#333333;}
		</style>
		<path class="st0" d="M8.1,9.4c-0.8,0.6-1.9,1-3,1C2.3,10.3,0,8,0,5.2C0,2.3,2.3,0,5.2,0s5.2,2.3,5.2,5.2c0,1.1-0.4,2.1-1,3l3.4,3.4
			c0.3,0.3,0.3,0.9,0,1.2l0,0c-0.3,0.3-0.9,0.3-1.2,0L8.1,9.4L8.1,9.4z M5.2,9.1c2.2,0,3.9-1.8,3.9-3.9c0-2.2-1.8-3.9-3.9-3.9
			C3,1.2,1.2,3,1.2,5.2C1.2,7.3,3,9.1,5.2,9.1L5.2,9.1z"/>
		<rect x="2.5" y="4.7" class="st0" width="5.4" height="1"/>
	</svg>

	<svg id="icon-search-plus" viewBox="0 0 13 13">
		<style type="text/css">
			.st0{fill:#333333;}
		</style>
		<path class="st0" d="M8.1,9.4c-0.8,0.6-1.9,1-3,1C2.3,10.3,0,8,0,5.2C0,2.3,2.3,0,5.2,0s5.2,2.3,5.2,5.2c0,1.1-0.4,2.1-1,3l3.4,3.4
			c0.3,0.3,0.3,0.9,0,1.2l0,0c-0.3,0.3-0.9,0.3-1.2,0L8.1,9.4L8.1,9.4z M5.2,9.1c2.2,0,3.9-1.8,3.9-3.9c0-2.2-1.8-3.9-3.9-3.9
			C3,1.2,1.2,3,1.2,5.2C1.2,7.3,3,9.1,5.2,9.1L5.2,9.1z"/>
		<rect x="2.5" y="4.7" class="st0" width="5.4" height="1"/>
		<rect x="4.7" y="2.5" class="st0" width="1" height="5.4"/>
	</svg>

	<svg id="icon-folder-open" viewBox="0 0 17 17">
		<path fill="#333" d="M16,9.5c0,0.2-0.1,0.4-0.2,0.5L13.1,13c-0.5,0.5-1.4,1-2.1,1H2.3c-0.3,0-0.7-0.1-0.7-0.4c0-0.2,0.1-0.4,0.2-0.5L4.5,10
			C5,9.4,5.9,9,6.6,9h8.7C15.6,9,16,9.1,16,9.5z M13.2,6.4V8H6.6c-1,0-2.2,0.6-2.9,1.3L1,12.4c0-0.1,0-0.1,0-0.2l0-7.7
			C1,3.5,1.3,3,2.3,3h3.5c1,0,1.4,0.3,1.4,1.3V5h4.7C12.8,5,13.2,5.4,13.2,6.4z"/>
	</svg>

	<svg id="icon-clipboard" viewBox="0 0 17 17">
		<path fill="#333" d="M14.6,2.9h-4.2c0-1-0.8-1.9-1.9-1.9S6.6,1.8,6.6,2.9H2.4c-0.3,0-0.5,0.2-0.5,0.5v12.2c0,0.3,0.2,0.5,0.5,0.5h12.2
			c0.3,0,0.5-0.2,0.5-0.5V3.3C15.1,3.1,14.9,2.9,14.6,2.9z M8.5,1.9c0.5,0,0.9,0.4,0.9,0.9S9,3.8,8.5,3.8S7.6,3.4,7.6,2.9
			S8,1.9,8.5,1.9z M14,15H3V4h1.7v1.5C4.7,5.8,5,6,5.2,6h6.6c0.3,0,0.5-0.2,0.5-0.5V4H14V15z"/>
		<path fill="#333" d="M7.6,13.6l-3-3.5l0.9-0.9l2.2,1.7l4-3.6l0.9,0.9L7.6,13.6z"/>
	</svg>

	<svg id="svg-loading" viewBox="0 0 50 50" cache="false">
		<style>
			.svg-loading-group {
				animation: svg-loading 3s linear infinite;
				transform-origin: 50% 50%;
			}
			.svg-loading-path {
				stroke-width: var(--stroke-width);
				stroke: transparent;
				fill: transparent;
			}
			.svg-loading-inner {
				stroke-dashoffset: 100;
				stroke-dasharray: 100;
				stroke-width: var(--stroke-width);
				stroke-linecap: round;
				stroke: var(--color-1);
				animation: svg-loading-circle 3s linear infinite;
				fill: transparent;
			}
			@keyframes svg-loading {
				0%   { transform: rotate( 0deg ); }
				100% { transform: rotate( 360deg ); }
			}
			@keyframes svg-loading-circle {
				0%   { stroke-dashoffset: 200; }
				100% { stroke-dashoffset: -200; }
			}
		</style>
		<g class="svg-loading-group">
			<circle class="svg-loading-path" cx="25" cy="25" r="20"/>
			<circle class="svg-loading-inner" cx="25" cy="25" r="20"/>
		</g>
	</svg>

</svg>