<svg xmlns="http://www.w3.org/2000/svg" width="0" height="0">

	<svg id="icon-sidebar" viewBox="0 0 13 13">
		<style type="text/css">
			.st0{fill:#333;}
		</style>
		<path class="st0" d="M11,2H6H5H2H1v1v7v1h1h3h1h5h1v-1V3V2H11z M2,10V3h3v7H2z M11,10H6V3h5V10z"/>
		<rect x="3" y="4" class="st0" width="1" height="1"/>
		<rect x="3" y="6" class="st0" width="1" height="1"/>
	</svg>

	<svg id="icon-search-minus" viewBox="0 0 13 13">
		<style type="text/css">
			.st0{fill:#333333;}
		</style>
		<path class="st0" d="M8.1,9.4c-0.8,0.6-1.9,1-3,1C2.3,10.3,0,8,0,5.2C0,2.3,2.3,0,5.2,0s5.2,2.3,5.2,5.2c0,1.1-0.4,2.1-1,3l3.4,3.4
			c0.3,0.3,0.3,0.9,0,1.2l0,0c-0.3,0.3-0.9,0.3-1.2,0L8.1,9.4L8.1,9.4z M5.2,9.1c2.2,0,3.9-1.8,3.9-3.9c0-2.2-1.8-3.9-3.9-3.9
			C3,1.2,1.2,3,1.2,5.2C1.2,7.3,3,9.1,5.2,9.1L5.2,9.1z"/>
		<rect x="2.5" y="4.7" class="st0" width="5.4" height="1"/>
	</svg>

	<svg id="icon-search-plus" viewBox="0 0 13 13">
		<style type="text/css">
			.st0{fill:#333333;}
		</style>
		<path class="st0" d="M8.1,9.4c-0.8,0.6-1.9,1-3,1C2.3,10.3,0,8,0,5.2C0,2.3,2.3,0,5.2,0s5.2,2.3,5.2,5.2c0,1.1-0.4,2.1-1,3l3.4,3.4
			c0.3,0.3,0.3,0.9,0,1.2l0,0c-0.3,0.3-0.9,0.3-1.2,0L8.1,9.4L8.1,9.4z M5.2,9.1c2.2,0,3.9-1.8,3.9-3.9c0-2.2-1.8-3.9-3.9-3.9
			C3,1.2,1.2,3,1.2,5.2C1.2,7.3,3,9.1,5.2,9.1L5.2,9.1z"/>
		<rect x="2.5" y="4.7" class="st0" width="5.4" height="1"/>
		<rect x="4.7" y="2.5" class="st0" width="1" height="5.4"/>
	</svg>

	<svg id="svg-loading" viewBox="0 0 50 50" cache="false">
		<style>
			.svg-loading-group {
				animation: svg-loading 3s linear infinite;
				transform-origin: 50% 50%;
			}
			.svg-loading-path {
				stroke-width: var(--stroke-width);
				stroke: transparent;
				fill: transparent;
			}
			.svg-loading-inner {
				stroke-dashoffset: 100;
				stroke-dasharray: 100;
				stroke-width: var(--stroke-width);
				stroke-linecap: round;
				stroke: var(--color-1);
				animation: svg-loading-circle 3s linear infinite;
				fill: transparent;
			}
			@keyframes svg-loading {
				0%   { transform: rotate( 0deg ); }
				100% { transform: rotate( 360deg ); }
			}
			@keyframes svg-loading-circle {
				0%   { stroke-dashoffset: 200; }
				100% { stroke-dashoffset: -200; }
			}
		</style>
		<g class="svg-loading-group">
			<circle class="svg-loading-path" cx="25" cy="25" r="20"/>
			<circle class="svg-loading-inner" cx="25" cy="25" r="20"/>
		</g>
	</svg>

</svg>